<?xml version="1.0" encoding="utf-8"?>
<!-- Generator: Adobe Illustrator 16.0.0, SVG Export Plug-In . SVG Version: 6.00 Build 0)  -->
<!DOCTYPE svg PUBLIC "-//W3C//DTD SVG 1.1//EN" "http://www.w3.org/Graphics/SVG/1.1/DTD/svg11.dtd">
<svg version="1.1" id="Layer_1" xmlns="http://www.w3.org/2000/svg" xmlns:xlink="http://www.w3.org/1999/xlink" x="0px" y="0px"
	 width="100px" height="81.5px" viewBox="0 0 100 81.5" style="enable-background:new 0 0 100 81.5;" xml:space="preserve">
<style type="text/css">
<![CDATA[
	.st0{fill:#231F20;}
	.st1{fill:none;stroke:#231F20;stroke-miterlimit:10;}
	.st2{fill:#FFFFFF;}
	.st3{fill:#D1D3D4;}
	.st4{fill:#A7A9AC;}
]]>
</style>
<g>
	<path class="st0" d="M99.99,70.22c0,1.1-0.9,2-2,2.01c0,0-47.99,0.21-47.99,9.46c0,6.17,0-59.9,0-72.02
		c0-11.01,47.99-9.53,47.99-9.53c1.1,0.03,2,0.96,2,2.06V70.22z"/>
</g>
<g>
	<path class="st4" d="M97.95,68.95c0,1.1-0.9,2-2,2.01c0,0-45.96,0.2-45.96,9.07c0,5.92,0-57.46,0-69.08
		c0-10.56,45.96-9.15,45.96-9.15c1.1,0.03,2,0.96,2,2.06V68.95z"/>
</g>
<g>
	<path class="st3" d="M96.79,67.28c0,1.1-0.9,2-2,2.01c0,0-44.8,0.2-44.8,8.86c0,5.78,0-56.08,0-67.42c0-10.31,44.8-8.93,44.8-8.93
		c1.1,0.03,2,0.96,2,2.06V67.28z"/>
</g>
<g>
	<path class="st2" d="M95.31,65.14c0,1.1-0.9,2-2,2.01c0,0-43.31,0.19-43.31,8.57c0,5.59,0-54.29,0-65.27
		c0-9.98,43.31-8.65,43.31-8.65c1.1,0.03,2,0.96,2,2.06V65.14z"/>
</g>
<g>
	<path class="st0" d="M0,70.22c0,1.1,0.9,2,2,2.01c0,0,47.99,0.21,47.99,9.46c0,6.17,0-59.9,0-72.02C49.99-1.34,2,0.14,2,0.14
		C0.9,0.17,0,1.1,0,2.2V70.22z"/>
</g>
<g>
	<path class="st4" d="M2.04,68.95c0,1.1,0.9,2,2,2.01c0,0,45.96,0.2,45.96,9.07c0,5.92,0-57.46,0-69.08
		c0-10.56-45.96-9.15-45.96-9.15c-1.1,0.03-2,0.96-2,2.06V68.95z"/>
</g>
<g>
	<path class="st3" d="M3.19,67.28c0,1.1,0.9,2,2,2.01c0,0,44.8,0.2,44.8,8.86c0,5.78,0-56.08,0-67.42c0-10.31-44.8-8.93-44.8-8.93
		c-1.1,0.03-2,0.96-2,2.06V67.28z"/>
</g>
<g>
	<path class="st2" d="M4.68,65.14c0,1.1,0.9,2,2,2.01c0,0,43.31,0.19,43.31,8.57c0,5.59,0-54.29,0-65.27
		c0-9.98-43.31-8.65-43.31-8.65c-1.1,0.03-2,0.96-2,2.06V65.14z"/>
</g>
<circle class="st4" cx="49.99" cy="38.94" r="19.18"/>
<circle class="st0" cx="49.99" cy="38.94" r="9.78"/>
<path class="st1" d="M83.03,38.94c-0.06,1.14-14.79,19.18-33.04,19.18S16.96,38.94,16.96,38.94s14.79-19.18,33.04-19.18
	S83.09,37.8,83.03,38.94z"/>
<g>
</g>
<g>
</g>
<g>
</g>
<g>
</g>
<g>
</g>
<g>
</g>
</svg>
